<svg xmlns="http://www.w3.org/2000/svg" viewBox="0 0 512 512" style="height: 512px; width: 512px;"><defs><linearGradient x1="0" x2="0" y1="0" y2="1" id="gradient-1"><stop offset="0%" stop-color="#ffe600" stop-opacity="1"></stop><stop offset="100%" stop-color="#ff7c00" stop-opacity="1"></stop></linearGradient></defs><path d="M0 0h512v512H0z" fill="transparent" fill-opacity="0"></path><g class="" transform="translate(0,0)" style="touch-action: none;"><path d="M129.75 24.47L21.625 211.655l55.78 32.188L185.532 56.656 129.75 24.47zm55.97 69.25l-75.626 130.874L326.47 349.47l75.592-130.876L185.72 93.72zm83.468.686l-11.22 19.438 84.97 49.03 11.25-19.468-85-49zM434.25 200.22L326.156 387.405l55.78 32.188 108.095-187.188-55.78-32.187zm-270.53 76.905l-11.282 19.53 84.968 49 11.25-19.5-84.937-49.03zm-3.095 45.844L61.312 494.81h67.157l82.28-142.968-50.125-28.875z" fill="url(#gradient-1)" transform="translate(0, 0) scale(1, 1) rotate(-360, 256, 256)"></path></g></svg>