<svg xmlns="http://www.w3.org/2000/svg" viewBox="0 0 512 512" style="height: 512px; width: 512px;"><defs><linearGradient id="gradient-1" x1="0" x2="1" y1="0" y2="1"><stop offset="0%" stop-color="#ff9900" stop-opacity="1"></stop><stop offset="100%" stop-color="#fff200" stop-opacity="1"></stop></linearGradient></defs><path d="M0 0h512v512H0z" fill="transparent" fill-opacity="0"></path><g class="" transform="translate(-7,-4)" style="touch-action: none;"><path d="M256 16c-96 0-120 48.188-120 72.188v71.718c0 13.296 10.61 23.907 23.907 23.907h23.907v144.375h-23.907c-13.296 0-23.907 10.61-23.907 23.907v71.717c0 24 24 72.188 120 72.188s120-48.188 120-72.188v-71.718c0-13.296-10.61-23.907-23.907-23.907h-23.907V183.813h23.907c13.296 0 23.907-10.61 23.907-23.907V88.187C376 64.188 352 16 256 16zm-23.907 167.813h47.813v144.375h-47.813V183.813z" fill="url(#gradient-1)"></path></g></svg>