<svg xmlns="http://www.w3.org/2000/svg" viewBox="0 0 512 512" style="height: 512px; width: 512px;"><defs><linearGradient x1="0" x2="0" y1="0" y2="1" id="gradient-1"><stop offset="0%" stop-color="#ffe600" stop-opacity="1"></stop><stop offset="100%" stop-color="#ff7c00" stop-opacity="1"></stop></linearGradient></defs><path d="M0 0h512v512H0z" fill="transparent" fill-opacity="0"></path><g class="" transform="translate(0,0)" style="touch-action: none;"><path d="M66.26 62.5c-4.533 0-9.11.862-11.564 1.906-.914.39-1.142.617-1.377.797v32.26l26.488.287-.47-32.488c-.237-.183-.513-.445-1.47-.85C75.382 63.36 70.795 62.5 66.26 62.5zM365.22 78.293c-.528.005-1.08.022-1.65.05-2.287.117-4.886.428-7.47.968-5.167 1.08-10.42 3.023-13.677 4.973-2.754 1.65-3.064 2.87-3.095 2.225l.143 20.05 29.85.323V78.585c-.124-.03-.017-.013-.16-.04-.998-.18-2.358-.267-3.94-.25zM19.413 115.1l.56 54.732 11.036 8.027-4.257 66.695 132.46 8.416-133.66 6.99-3.5 44.987 361.22-1.93 48.19-36.52.257-12.01 60.867-41.66-39.547-40.106-56.44-6.484 39.544-5.52-58.74-35.747zM369.32 321.092l-27.723.148 1.63 167.76h26.092V370.074l-9.272-4.303 9.27-5.23zm-286.428 1.53l-29.573.16V489h31.867z" fill="url(#gradient-1)" transform="translate(0, 0) scale(1, 1) rotate(-360, 256, 256)"></path></g></svg>